# Blender 4.0.2
# www.blender.org
mtllib carrier.mtl
o åœ†ç¯
v 0.000000 0.000000 -1.000000
v -0.024541 0.000000 -0.999699
v -0.049068 0.000000 -0.998795
v -0.073565 0.000000 -0.997290
v -0.098017 0.000000 -0.995185
v -0.122411 0.000000 -0.992480
v -0.146730 0.000000 -0.989177
v -0.170962 0.000000 -0.985278
v -0.195090 0.000000 -0.980785
v -0.219101 0.000000 -0.975702
v -0.242980 0.000000 -0.970031
v -0.266713 0.000000 -0.963776
v -0.290285 0.000000 -0.956940
v -0.313682 0.000000 -0.949528
v -0.336890 0.000000 -0.941544
v -0.359895 0.000000 -0.932993
v -0.382683 0.000000 -0.923880
v -0.405241 0.000000 -0.914210
v -0.427555 0.000000 -0.903989
v -0.449611 0.000000 -0.893224
v -0.471397 0.000000 -0.881921
v -0.492898 0.000000 -0.870087
v -0.514103 0.000000 -0.857729
v -0.534998 0.000000 -0.844854
v -0.555570 0.000000 -0.831470
v -0.575808 0.000000 -0.817585
v -0.595699 0.000000 -0.803208
v -0.615232 0.000000 -0.788346
v -0.634393 0.000000 -0.773010
v -0.653173 0.000000 -0.757209
v -0.671559 0.000000 -0.740951
v -0.689541 0.000000 -0.724247
v -0.707107 0.000000 -0.707107
v -0.724247 0.000000 -0.689541
v -0.740951 0.000000 -0.671559
v -0.757209 0.000000 -0.653173
v -0.773010 0.000000 -0.634393
v -0.788346 0.000000 -0.615232
v -0.803208 0.000000 -0.595699
v -0.817585 0.000000 -0.575808
v -0.831470 0.000000 -0.555570
v -0.844854 0.000000 -0.534998
v -0.857729 0.000000 -0.514103
v -0.870087 0.000000 -0.492898
v -0.881921 0.000000 -0.471397
v -0.893224 0.000000 -0.449611
v -0.903989 0.000000 -0.427555
v -0.914210 0.000000 -0.405241
v -0.923880 0.000000 -0.382683
v -0.932993 0.000000 -0.359895
v -0.941544 0.000000 -0.336890
v -0.949528 0.000000 -0.313682
v -0.956940 0.000000 -0.290285
v -0.963776 0.000000 -0.266713
v -0.970031 0.000000 -0.242980
v -0.975702 0.000000 -0.219101
v -0.980785 0.000000 -0.195090
v -0.985278 0.000000 -0.170962
v -0.989177 0.000000 -0.146730
v -0.992480 0.000000 -0.122411
v -0.995185 0.000000 -0.098017
v -0.997290 0.000000 -0.073565
v -0.998795 0.000000 -0.049068
v -0.999699 0.000000 -0.024541
v -1.000000 0.000000 -0.000000
v -0.999699 0.000000 0.024541
v -0.998795 0.000000 0.049068
v -0.997290 0.000000 0.073565
v -0.995185 0.000000 0.098017
v -0.992480 0.000000 0.122411
v -0.989177 0.000000 0.146730
v -0.985278 0.000000 0.170962
v -0.980785 0.000000 0.195090
v -0.975702 0.000000 0.219101
v -0.970031 0.000000 0.242980
v -0.963776 0.000000 0.266713
v -0.956940 0.000000 0.290285
v -0.949528 0.000000 0.313682
v -0.941544 0.000000 0.336890
v -0.932993 0.000000 0.359895
v -0.923880 0.000000 0.382683
v -0.914210 0.000000 0.405241
v -0.903989 0.000000 0.427555
v -0.893224 0.000000 0.449611
v -0.881921 0.000000 0.471397
v -0.870087 0.000000 0.492898
v -0.857729 0.000000 0.514103
v -0.844854 0.000000 0.534998
v -0.831470 0.000000 0.555570
v -0.817585 0.000000 0.575808
v -0.803208 0.000000 0.595699
v -0.788346 0.000000 0.615232
v -0.773010 0.000000 0.634393
v -0.757209 0.000000 0.653173
v -0.740951 0.000000 0.671559
v -0.724247 0.000000 0.689541
v -0.707107 0.000000 0.707107
v -0.689541 0.000000 0.724247
v -0.671559 0.000000 0.740951
v -0.653173 0.000000 0.757209
v -0.634393 0.000000 0.773010
v -0.615232 0.000000 0.788346
v -0.595699 0.000000 0.803208
v -0.575808 0.000000 0.817585
v -0.555570 0.000000 0.831470
v -0.534998 0.000000 0.844854
v -0.514103 0.000000 0.857729
v -0.492898 0.000000 0.870087
v -0.471397 0.000000 0.881921
v -0.449611 0.000000 0.893224
v -0.427555 0.000000 0.903989
v -0.405241 0.000000 0.914210
v -0.382683 0.000000 0.923880
v -0.359895 0.000000 0.932993
v -0.336890 0.000000 0.941544
v -0.313682 0.000000 0.949528
v -0.290285 0.000000 0.956940
v -0.266713 0.000000 0.963776
v -0.242980 0.000000 0.970031
v -0.219101 0.000000 0.975702
v -0.195090 0.000000 0.980785
v -0.170962 0.000000 0.985278
v -0.146730 0.000000 0.989177
v -0.122411 0.000000 0.992480
v -0.098017 0.000000 0.995185
v -0.073565 0.000000 0.997290
v -0.049068 0.000000 0.998795
v -0.024541 0.000000 0.999699
v 0.000000 0.000000 1.000000
v 0.024541 0.000000 0.999699
v 0.049068 0.000000 0.998795
v 0.073565 0.000000 0.997290
v 0.098017 0.000000 0.995185
v 0.122411 0.000000 0.992480
v 0.146730 0.000000 0.989177
v 0.170962 0.000000 0.985278
v 0.195090 0.000000 0.980785
v 0.219101 0.000000 0.975702
v 0.242980 0.000000 0.970031
v 0.266713 0.000000 0.963776
v 0.290285 0.000000 0.956940
v 0.313682 0.000000 0.949528
v 0.336890 0.000000 0.941544
v 0.359895 0.000000 0.932993
v 0.382683 0.000000 0.923880
v 0.405241 0.000000 0.914210
v 0.427555 0.000000 0.903989
v 0.449611 0.000000 0.893224
v 0.471397 0.000000 0.881921
v 0.492898 0.000000 0.870087
v 0.514103 0.000000 0.857729
v 0.534998 0.000000 0.844854
v 0.555570 0.000000 0.831470
v 0.575808 0.000000 0.817585
v 0.595699 0.000000 0.803208
v 0.615232 0.000000 0.788346
v 0.634393 0.000000 0.773010
v 0.653173 0.000000 0.757209
v 0.671559 0.000000 0.740951
v 0.689541 0.000000 0.724247
v 0.707107 0.000000 0.707107
v 0.724247 0.000000 0.689541
v 0.740951 0.000000 0.671559
v 0.757209 0.000000 0.653173
v 0.773010 0.000000 0.634393
v 0.788346 0.000000 0.615232
v 0.803208 0.000000 0.595699
v 0.817585 0.000000 0.575808
v 0.831470 0.000000 0.555570
v 0.844854 0.000000 0.534998
v 0.857729 0.000000 0.514103
v 0.870087 0.000000 0.492898
v 0.881921 0.000000 0.471397
v 0.893224 0.000000 0.449611
v 0.903989 0.000000 0.427555
v 0.914210 0.000000 0.405241
v 0.923880 0.000000 0.382683
v 0.932993 0.000000 0.359895
v 0.941544 0.000000 0.336890
v 0.949528 0.000000 0.313682
v 0.956940 0.000000 0.290285
v 0.963776 0.000000 0.266713
v 0.970031 0.000000 0.242980
v 0.975702 0.000000 0.219101
v 0.980785 0.000000 0.195090
v 0.985278 0.000000 0.170962
v 0.989177 0.000000 0.146730
v 0.992480 0.000000 0.122411
v 0.995185 0.000000 0.098017
v 0.997290 0.000000 0.073565
v 0.998795 0.000000 0.049068
v 0.999699 0.000000 0.024541
v 1.000000 0.000000 -0.000000
v 0.999699 0.000000 -0.024541
v 0.998795 0.000000 -0.049068
v 0.997290 0.000000 -0.073565
v 0.995185 0.000000 -0.098017
v 0.992480 0.000000 -0.122411
v 0.989177 0.000000 -0.146730
v 0.985278 0.000000 -0.170962
v 0.980785 0.000000 -0.195090
v 0.975702 0.000000 -0.219101
v 0.970031 0.000000 -0.242980
v 0.963776 0.000000 -0.266713
v 0.956940 0.000000 -0.290285
v 0.949528 0.000000 -0.313682
v 0.941544 0.000000 -0.336890
v 0.932993 0.000000 -0.359895
v 0.923880 0.000000 -0.382683
v 0.914210 0.000000 -0.405241
v 0.903989 0.000000 -0.427555
v 0.893224 0.000000 -0.449611
v 0.881921 0.000000 -0.471397
v 0.870087 0.000000 -0.492898
v 0.857729 0.000000 -0.514103
v 0.844854 0.000000 -0.534998
v 0.831470 0.000000 -0.555570
v 0.817585 0.000000 -0.575808
v 0.803208 0.000000 -0.595699
v 0.788346 0.000000 -0.615232
v 0.773010 0.000000 -0.634393
v 0.757209 0.000000 -0.653173
v 0.740951 0.000000 -0.671559
v 0.724247 0.000000 -0.689541
v 0.707107 0.000000 -0.707107
v 0.689541 0.000000 -0.724247
v 0.671559 0.000000 -0.740951
v 0.653173 0.000000 -0.757209
v 0.634393 0.000000 -0.773010
v 0.615232 0.000000 -0.788346
v 0.595699 0.000000 -0.803208
v 0.575808 0.000000 -0.817585
v 0.555570 0.000000 -0.831470
v 0.534998 0.000000 -0.844854
v 0.514103 0.000000 -0.857729
v 0.492898 0.000000 -0.870087
v 0.471397 0.000000 -0.881921
v 0.449611 0.000000 -0.893224
v 0.427555 0.000000 -0.903989
v 0.405241 0.000000 -0.914210
v 0.382683 0.000000 -0.923880
v 0.359895 0.000000 -0.932993
v 0.336890 0.000000 -0.941544
v 0.313682 0.000000 -0.949528
v 0.290285 0.000000 -0.956940
v 0.266713 0.000000 -0.963776
v 0.242980 0.000000 -0.970031
v 0.219101 0.000000 -0.975702
v 0.195090 0.000000 -0.980785
v 0.170962 0.000000 -0.985278
v 0.146730 0.000000 -0.989177
v 0.122411 0.000000 -0.992480
v 0.098017 0.000000 -0.995185
v 0.073565 0.000000 -0.997290
v 0.049068 0.000000 -0.998795
v 0.024541 0.000000 -0.999699
vn -0.0000 1.0000 -0.0000
vt 0.000064 0.501204
vt 0.498796 0.000064
vt 0.999936 0.498795
vt 0.999815 0.511065
vt 0.999393 0.523328
vt 0.998670 0.535576
vt 0.997647 0.547804
vt 0.996324 0.560002
vt 0.994702 0.572164
vt 0.992782 0.584283
vt 0.990565 0.596351
vt 0.988053 0.608361
vt 0.985247 0.620306
vt 0.982148 0.632178
vt 0.978759 0.643971
vt 0.975081 0.655677
vt 0.971118 0.667289
vt 0.966870 0.678801
vt 0.962342 0.690205
vt 0.957535 0.701494
vt 0.952452 0.712661
vt 0.947097 0.723701
vt 0.941472 0.734606
vt 0.935582 0.745370
vt 0.929429 0.755985
vt 0.923017 0.766447
vt 0.916351 0.776748
vt 0.909434 0.786882
vt 0.902270 0.796844
vt 0.894864 0.806627
vt 0.887220 0.816225
vt 0.879343 0.825633
vt 0.871237 0.834844
vt 0.862908 0.843854
vt 0.854360 0.852657
vt 0.845599 0.861247
vt 0.836629 0.869619
vt 0.827457 0.877769
vt 0.818087 0.885692
vt 0.808526 0.893382
vt 0.798779 0.900835
vt 0.788852 0.908047
vt 0.778751 0.915013
vt 0.768483 0.921728
vt 0.758052 0.928190
vt 0.747466 0.934394
vt 0.736731 0.940337
vt 0.725853 0.946014
vt 0.714839 0.951422
vt 0.703696 0.956558
vt 0.692430 0.961420
vt 0.681048 0.966003
vt 0.669558 0.970306
vt 0.657965 0.974326
vt 0.646276 0.978060
vt 0.634500 0.981505
vt 0.622643 0.984661
vt 0.610712 0.987525
vt 0.598714 0.990095
vt 0.586657 0.992370
vt 0.574547 0.994348
vt 0.562393 0.996029
vt 0.550201 0.997411
vt 0.537979 0.998493
vt 0.525734 0.999275
vt 0.513473 0.999756
vt 0.501204 0.999936
vt 0.488935 0.999815
vt 0.476672 0.999393
vt 0.464424 0.998670
vt 0.452196 0.997647
vt 0.439998 0.996324
vt 0.427836 0.994702
vt 0.415717 0.992782
vt 0.403649 0.990565
vt 0.391639 0.988053
vt 0.379694 0.985246
vt 0.367822 0.982148
vt 0.356029 0.978759
vt 0.344323 0.975081
vt 0.332711 0.971118
vt 0.321199 0.966870
vt 0.309795 0.962342
vt 0.298506 0.957535
vt 0.287339 0.952452
vt 0.276299 0.947097
vt 0.265394 0.941472
vt 0.254630 0.935582
vt 0.244015 0.929429
vt 0.233553 0.923017
vt 0.223252 0.916351
vt 0.213118 0.909434
vt 0.203156 0.902270
vt 0.193373 0.894864
vt 0.183775 0.887220
vt 0.174367 0.879343
vt 0.165156 0.871237
vt 0.156146 0.862908
vt 0.147343 0.854360
vt 0.138753 0.845599
vt 0.130381 0.836629
vt 0.122231 0.827457
vt 0.114308 0.818087
vt 0.106618 0.808526
vt 0.099165 0.798779
vt 0.091953 0.788852
vt 0.084987 0.778751
vt 0.078272 0.768483
vt 0.071810 0.758052
vt 0.065606 0.747466
vt 0.059663 0.736731
vt 0.053986 0.725853
vt 0.048578 0.714839
vt 0.043442 0.703696
vt 0.038580 0.692430
vt 0.033997 0.681048
vt 0.029694 0.669557
vt 0.025674 0.657965
vt 0.021941 0.646276
vt 0.018495 0.634500
vt 0.015339 0.622643
vt 0.012475 0.610712
vt 0.009905 0.598714
vt 0.007630 0.586657
vt 0.005652 0.574547
vt 0.003971 0.562393
vt 0.002589 0.550201
vt 0.001507 0.537979
vt 0.000725 0.525734
vt 0.000244 0.513473
vt 0.000185 0.488935
vt 0.000607 0.476672
vt 0.001330 0.464424
vt 0.002353 0.452196
vt 0.003676 0.439998
vt 0.005298 0.427836
vt 0.007218 0.415717
vt 0.009435 0.403649
vt 0.011947 0.391639
vt 0.014754 0.379694
vt 0.017852 0.367822
vt 0.021241 0.356029
vt 0.024919 0.344323
vt 0.028882 0.332711
vt 0.033130 0.321199
vt 0.037658 0.309795
vt 0.042465 0.298506
vt 0.047548 0.287339
vt 0.052903 0.276299
vt 0.058528 0.265394
vt 0.064418 0.254630
vt 0.070571 0.244015
vt 0.076983 0.233553
vt 0.083649 0.223252
vt 0.090566 0.213118
vt 0.097730 0.203156
vt 0.105136 0.193373
vt 0.112780 0.183775
vt 0.120657 0.174367
vt 0.128763 0.165156
vt 0.137092 0.156146
vt 0.145640 0.147343
vt 0.154401 0.138753
vt 0.163371 0.130381
vt 0.172543 0.122231
vt 0.181913 0.114308
vt 0.191474 0.106618
vt 0.201221 0.099165
vt 0.211148 0.091953
vt 0.221249 0.084987
vt 0.231518 0.078272
vt 0.241948 0.071810
vt 0.252534 0.065606
vt 0.263269 0.059663
vt 0.274147 0.053986
vt 0.285161 0.048578
vt 0.296304 0.043442
vt 0.307570 0.038580
vt 0.318952 0.033997
vt 0.330442 0.029694
vt 0.342035 0.025674
vt 0.353724 0.021941
vt 0.365500 0.018495
vt 0.377357 0.015339
vt 0.389288 0.012475
vt 0.401286 0.009905
vt 0.413343 0.007630
vt 0.425453 0.005652
vt 0.437607 0.003971
vt 0.449799 0.002589
vt 0.462021 0.001507
vt 0.474266 0.000725
vt 0.486527 0.000244
vt 0.511065 0.000185
vt 0.523328 0.000607
vt 0.535576 0.001330
vt 0.547804 0.002353
vt 0.560002 0.003676
vt 0.572164 0.005298
vt 0.584283 0.007218
vt 0.596351 0.009435
vt 0.608361 0.011947
vt 0.620306 0.014754
vt 0.632178 0.017852
vt 0.643971 0.021241
vt 0.655677 0.024919
vt 0.667289 0.028882
vt 0.678801 0.033130
vt 0.690205 0.037658
vt 0.701494 0.042465
vt 0.712661 0.047548
vt 0.723701 0.052903
vt 0.734606 0.058528
vt 0.745370 0.064418
vt 0.755985 0.070571
vt 0.766447 0.076983
vt 0.776748 0.083649
vt 0.786883 0.090566
vt 0.796844 0.097730
vt 0.806627 0.105136
vt 0.816225 0.112780
vt 0.825633 0.120657
vt 0.834844 0.128763
vt 0.843854 0.137092
vt 0.852657 0.145640
vt 0.861247 0.154401
vt 0.869619 0.163371
vt 0.877769 0.172543
vt 0.885692 0.181913
vt 0.893382 0.191474
vt 0.900835 0.201221
vt 0.908047 0.211148
vt 0.915013 0.221249
vt 0.921728 0.231517
vt 0.928190 0.241948
vt 0.934394 0.252534
vt 0.940337 0.263269
vt 0.946014 0.274147
vt 0.951422 0.285161
vt 0.956558 0.296304
vt 0.961420 0.307570
vt 0.966004 0.318952
vt 0.970306 0.330442
vt 0.974326 0.342035
vt 0.978060 0.353723
vt 0.981505 0.365500
vt 0.984661 0.377357
vt 0.987525 0.389288
vt 0.990095 0.401286
vt 0.992370 0.413343
vt 0.994349 0.425453
vt 0.996029 0.437607
vt 0.997411 0.449799
vt 0.998493 0.462021
vt 0.999275 0.474266
vt 0.999756 0.486527
s 0
usemtl æè´¨
f 129/1/1 193/2/1 1/3/1
f 1/3/1 2/4/1 3/5/1
f 3/5/1 4/6/1 5/7/1
f 5/7/1 6/8/1 7/9/1
f 7/9/1 8/10/1 9/11/1
f 9/11/1 10/12/1 11/13/1
f 11/13/1 12/14/1 13/15/1
f 13/15/1 14/16/1 15/17/1
f 15/17/1 16/18/1 17/19/1
f 17/19/1 18/20/1 19/21/1
f 19/21/1 20/22/1 21/23/1
f 21/23/1 22/24/1 23/25/1
f 23/25/1 24/26/1 25/27/1
f 25/27/1 26/28/1 27/29/1
f 27/29/1 28/30/1 29/31/1
f 29/31/1 30/32/1 31/33/1
f 31/33/1 32/34/1 33/35/1
f 33/35/1 34/36/1 35/37/1
f 35/37/1 36/38/1 37/39/1
f 37/39/1 38/40/1 39/41/1
f 39/41/1 40/42/1 41/43/1
f 41/43/1 42/44/1 43/45/1
f 43/45/1 44/46/1 45/47/1
f 45/47/1 46/48/1 47/49/1
f 47/49/1 48/50/1 49/51/1
f 49/51/1 50/52/1 51/53/1
f 51/53/1 52/54/1 53/55/1
f 53/55/1 54/56/1 55/57/1
f 55/57/1 56/58/1 57/59/1
f 57/59/1 58/60/1 59/61/1
f 59/61/1 60/62/1 61/63/1
f 61/63/1 62/64/1 63/65/1
f 63/65/1 64/66/1 65/67/1
f 65/67/1 66/68/1 67/69/1
f 67/69/1 68/70/1 69/71/1
f 69/71/1 70/72/1 71/73/1
f 71/73/1 72/74/1 73/75/1
f 73/75/1 74/76/1 75/77/1
f 75/77/1 76/78/1 77/79/1
f 77/79/1 78/80/1 79/81/1
f 79/81/1 80/82/1 81/83/1
f 81/83/1 82/84/1 83/85/1
f 83/85/1 84/86/1 85/87/1
f 85/87/1 86/88/1 87/89/1
f 87/89/1 88/90/1 89/91/1
f 89/91/1 90/92/1 91/93/1
f 91/93/1 92/94/1 93/95/1
f 93/95/1 94/96/1 95/97/1
f 95/97/1 96/98/1 97/99/1
f 97/99/1 98/100/1 99/101/1
f 99/101/1 100/102/1 101/103/1
f 101/103/1 102/104/1 103/105/1
f 103/105/1 104/106/1 105/107/1
f 105/107/1 106/108/1 107/109/1
f 107/109/1 108/110/1 109/111/1
f 109/111/1 110/112/1 111/113/1
f 111/113/1 112/114/1 113/115/1
f 113/115/1 114/116/1 115/117/1
f 115/117/1 116/118/1 117/119/1
f 117/119/1 118/120/1 119/121/1
f 119/121/1 120/122/1 121/123/1
f 121/123/1 122/124/1 123/125/1
f 123/125/1 124/126/1 125/127/1
f 125/127/1 126/128/1 127/129/1
f 127/129/1 128/130/1 129/1/1
f 129/1/1 130/131/1 131/132/1
f 131/132/1 132/133/1 133/134/1
f 133/134/1 134/135/1 135/136/1
f 135/136/1 136/137/1 137/138/1
f 137/138/1 138/139/1 139/140/1
f 139/140/1 140/141/1 141/142/1
f 141/142/1 142/143/1 143/144/1
f 143/144/1 144/145/1 145/146/1
f 145/146/1 146/147/1 147/148/1
f 147/148/1 148/149/1 149/150/1
f 149/150/1 150/151/1 151/152/1
f 151/152/1 152/153/1 153/154/1
f 153/154/1 154/155/1 155/156/1
f 155/156/1 156/157/1 157/158/1
f 157/158/1 158/159/1 159/160/1
f 159/160/1 160/161/1 161/162/1
f 161/162/1 162/163/1 163/164/1
f 163/164/1 164/165/1 165/166/1
f 165/166/1 166/167/1 167/168/1
f 167/168/1 168/169/1 169/170/1
f 169/170/1 170/171/1 171/172/1
f 171/172/1 172/173/1 173/174/1
f 173/174/1 174/175/1 175/176/1
f 175/176/1 176/177/1 177/178/1
f 177/178/1 178/179/1 179/180/1
f 179/180/1 180/181/1 181/182/1
f 181/182/1 182/183/1 183/184/1
f 183/184/1 184/185/1 185/186/1
f 185/186/1 186/187/1 187/188/1
f 187/188/1 188/189/1 189/190/1
f 189/190/1 190/191/1 191/192/1
f 191/192/1 192/193/1 193/2/1
f 193/2/1 194/194/1 195/195/1
f 195/195/1 196/196/1 197/197/1
f 197/197/1 198/198/1 199/199/1
f 199/199/1 200/200/1 201/201/1
f 201/201/1 202/202/1 203/203/1
f 203/203/1 204/204/1 205/205/1
f 205/205/1 206/206/1 207/207/1
f 207/207/1 208/208/1 209/209/1
f 209/209/1 210/210/1 211/211/1
f 211/211/1 212/212/1 213/213/1
f 213/213/1 214/214/1 215/215/1
f 215/215/1 216/216/1 217/217/1
f 217/217/1 218/218/1 219/219/1
f 219/219/1 220/220/1 221/221/1
f 221/221/1 222/222/1 223/223/1
f 223/223/1 224/224/1 225/225/1
f 225/225/1 226/226/1 227/227/1
f 227/227/1 228/228/1 229/229/1
f 229/229/1 230/230/1 231/231/1
f 231/231/1 232/232/1 233/233/1
f 233/233/1 234/234/1 235/235/1
f 235/235/1 236/236/1 237/237/1
f 237/237/1 238/238/1 239/239/1
f 239/239/1 240/240/1 241/241/1
f 241/241/1 242/242/1 243/243/1
f 243/243/1 244/244/1 245/245/1
f 245/245/1 246/246/1 247/247/1
f 247/247/1 248/248/1 249/249/1
f 249/249/1 250/250/1 251/251/1
f 251/251/1 252/252/1 253/253/1
f 253/253/1 254/254/1 255/255/1
f 255/255/1 256/256/1 1/3/1
f 1/3/1 3/5/1 5/7/1
f 5/7/1 7/9/1 9/11/1
f 9/11/1 11/13/1 13/15/1
f 13/15/1 15/17/1 17/19/1
f 17/19/1 19/21/1 21/23/1
f 21/23/1 23/25/1 25/27/1
f 25/27/1 27/29/1 29/31/1
f 29/31/1 31/33/1 33/35/1
f 33/35/1 35/37/1 37/39/1
f 37/39/1 39/41/1 41/43/1
f 41/43/1 43/45/1 45/47/1
f 45/47/1 47/49/1 49/51/1
f 49/51/1 51/53/1 53/55/1
f 53/55/1 55/57/1 57/59/1
f 57/59/1 59/61/1 61/63/1
f 61/63/1 63/65/1 65/67/1
f 65/67/1 67/69/1 69/71/1
f 69/71/1 71/73/1 73/75/1
f 73/75/1 75/77/1 77/79/1
f 77/79/1 79/81/1 81/83/1
f 81/83/1 83/85/1 85/87/1
f 85/87/1 87/89/1 89/91/1
f 89/91/1 91/93/1 93/95/1
f 93/95/1 95/97/1 97/99/1
f 97/99/1 99/101/1 101/103/1
f 101/103/1 103/105/1 105/107/1
f 105/107/1 107/109/1 109/111/1
f 109/111/1 111/113/1 113/115/1
f 113/115/1 115/117/1 117/119/1
f 117/119/1 119/121/1 121/123/1
f 121/123/1 123/125/1 125/127/1
f 125/127/1 127/129/1 129/1/1
f 129/1/1 131/132/1 133/134/1
f 133/134/1 135/136/1 137/138/1
f 137/138/1 139/140/1 141/142/1
f 141/142/1 143/144/1 145/146/1
f 145/146/1 147/148/1 149/150/1
f 149/150/1 151/152/1 153/154/1
f 153/154/1 155/156/1 157/158/1
f 157/158/1 159/160/1 161/162/1
f 161/162/1 163/164/1 165/166/1
f 165/166/1 167/168/1 169/170/1
f 169/170/1 171/172/1 173/174/1
f 173/174/1 175/176/1 177/178/1
f 177/178/1 179/180/1 181/182/1
f 181/182/1 183/184/1 185/186/1
f 185/186/1 187/188/1 189/190/1
f 189/190/1 191/192/1 193/2/1
f 193/2/1 195/195/1 197/197/1
f 197/197/1 199/199/1 201/201/1
f 201/201/1 203/203/1 205/205/1
f 205/205/1 207/207/1 209/209/1
f 209/209/1 211/211/1 213/213/1
f 213/213/1 215/215/1 217/217/1
f 217/217/1 219/219/1 221/221/1
f 221/221/1 223/223/1 225/225/1
f 225/225/1 227/227/1 229/229/1
f 229/229/1 231/231/1 233/233/1
f 233/233/1 235/235/1 237/237/1
f 237/237/1 239/239/1 241/241/1
f 241/241/1 243/243/1 245/245/1
f 245/245/1 247/247/1 249/249/1
f 249/249/1 251/251/1 253/253/1
f 253/253/1 255/255/1 1/3/1
f 1/3/1 5/7/1 9/11/1
f 9/11/1 13/15/1 17/19/1
f 17/19/1 21/23/1 25/27/1
f 25/27/1 29/31/1 33/35/1
f 33/35/1 37/39/1 41/43/1
f 41/43/1 45/47/1 49/51/1
f 49/51/1 53/55/1 57/59/1
f 57/59/1 61/63/1 65/67/1
f 65/67/1 69/71/1 73/75/1
f 73/75/1 77/79/1 81/83/1
f 81/83/1 85/87/1 89/91/1
f 89/91/1 93/95/1 97/99/1
f 97/99/1 101/103/1 105/107/1
f 105/107/1 109/111/1 113/115/1
f 113/115/1 117/119/1 121/123/1
f 121/123/1 125/127/1 129/1/1
f 129/1/1 133/134/1 137/138/1
f 137/138/1 141/142/1 145/146/1
f 145/146/1 149/150/1 153/154/1
f 153/154/1 157/158/1 161/162/1
f 161/162/1 165/166/1 169/170/1
f 169/170/1 173/174/1 177/178/1
f 177/178/1 181/182/1 185/186/1
f 185/186/1 189/190/1 193/2/1
f 193/2/1 197/197/1 201/201/1
f 201/201/1 205/205/1 209/209/1
f 209/209/1 213/213/1 217/217/1
f 217/217/1 221/221/1 225/225/1
f 225/225/1 229/229/1 233/233/1
f 233/233/1 237/237/1 241/241/1
f 241/241/1 245/245/1 249/249/1
f 249/249/1 253/253/1 1/3/1
f 1/3/1 9/11/1 17/19/1
f 17/19/1 25/27/1 33/35/1
f 33/35/1 41/43/1 49/51/1
f 49/51/1 57/59/1 65/67/1
f 65/67/1 73/75/1 81/83/1
f 81/83/1 89/91/1 97/99/1
f 97/99/1 105/107/1 113/115/1
f 113/115/1 121/123/1 129/1/1
f 129/1/1 137/138/1 145/146/1
f 145/146/1 153/154/1 161/162/1
f 161/162/1 169/170/1 177/178/1
f 177/178/1 185/186/1 193/2/1
f 193/2/1 201/201/1 209/209/1
f 209/209/1 217/217/1 225/225/1
f 225/225/1 233/233/1 241/241/1
f 241/241/1 249/249/1 1/3/1
f 1/3/1 17/19/1 33/35/1
f 33/35/1 49/51/1 65/67/1
f 65/67/1 81/83/1 97/99/1
f 97/99/1 113/115/1 129/1/1
f 129/1/1 145/146/1 161/162/1
f 161/162/1 177/178/1 193/2/1
f 193/2/1 209/209/1 225/225/1
f 225/225/1 241/241/1 1/3/1
f 1/3/1 33/35/1 65/67/1
f 65/67/1 97/99/1 129/1/1
f 129/1/1 161/162/1 193/2/1
f 193/2/1 225/225/1 1/3/1
f 1/3/1 65/67/1 129/1/1
